<?xml version="1.0" encoding="utf-8"?>
<!-- Generator: Adobe Illustrator 15.0.0, SVG Export Plug-In . SVG Version: 6.00 Build 0)  -->
<!DOCTYPE svg PUBLIC "-//W3C//DTD SVG 1.1//EN" "http://www.w3.org/Graphics/SVG/1.1/DTD/svg11.dtd">
<svg version="1.1" id="Laag_1" xmlns="http://www.w3.org/2000/svg" xmlns:xlink="http://www.w3.org/1999/xlink" x="0px" y="0px"
	 width="841.89px" height="595.28px" viewBox="0 0 841.89 595.28" enable-background="new 0 0 841.89 595.28" xml:space="preserve">
<g>
	<g>
		<path fill="#1A171B" d="M341.812,302.123v-71.25h16.055c4.244,0,8.072,1.119,11.484,3.359c2.916,1.9,5,4.83,6.25,8.789
			c0.678,2.135,1.016,4.662,1.016,7.578c0,4.766-1.264,8.594-3.789,11.484c-1.068,1.197-2.318,2.123-3.75,2.773
			c2.369,0.912,4.389,2.709,6.055,5.391c1.119,1.822,1.939,4.166,2.461,7.031c0.26,1.484,0.391,3.139,0.391,4.961
			c0,4.506-0.846,8.334-2.539,11.484c-1.328,2.447-3.203,4.414-5.625,5.898c-2.734,1.666-5.443,2.5-8.125,2.5H341.812z
			 M353.375,259.975h4.492c3.334,0,5.572-1.627,6.719-4.883c0.416-1.225,0.625-2.721,0.625-4.492c0-2.969-0.717-5.209-2.148-6.719
			c-1.328-1.406-3.061-2.109-5.195-2.109h-4.492V259.975z M353.375,291.498h4.492c3.646,0,6.172-1.875,7.578-5.625
			c0.494-1.275,0.742-2.748,0.742-4.414c0-3.984-0.768-6.889-2.305-8.711c-1.354-1.666-3.359-2.5-6.016-2.5h-4.492V291.498z"/>
		<path fill="#1A171B" d="M395.133,272.279l-14.375-41.406h11.797l7.988,25.586l7.91-25.586h11.875l-14.453,41.406v29.844h-10.742
			V272.279z"/>
		<path fill="#1A171B" d="M431.344,285.756l-2.617,16.367h-11.172l12.07-71.25h14.805l11.914,71.25h-11.25l-2.539-16.367H431.344z
			 M436.969,247.201l-3.984,28.086h7.969L436.969,247.201z"/>
		<path fill="#1A171B" d="M482.32,230.873c5.988,0,10.379,1.654,13.164,4.961c2.473,2.891,3.711,6.9,3.711,12.031v10.352
			c0,5.053-1.91,9.311-5.73,12.773l7.957,31.133h-11.586l-6.551-26.914c-0.312,0.025-0.637,0.039-0.977,0.039h-6.16v26.875h-10.742
			v-71.25H482.32z M488.727,248.061c0-4.141-2.035-6.211-6.113-6.211h-6.465v22.773h6.465c1.711,0,3.16-0.605,4.344-1.816
			c1.18-1.211,1.77-2.662,1.77-4.355V248.061z"/>
		<path fill="#1A171B" d="M522.711,230.873l14.219,47.852v-47.852h10.742v71.25h-11.504l-14.785-45.625v45.625h-10.742v-71.25
			H522.711z"/>
		<path fill="#1A171B" d="M574.039,230.014c4.738,0,8.77,1.666,12.09,5s4.98,7.357,4.98,12.07v38.867c0,4.74-1.668,8.77-5,12.09
			s-7.355,4.982-12.07,4.982s-8.719-1.668-12.012-5.002s-4.941-7.357-4.941-12.07v-38.867c0-4.74,1.668-8.77,5-12.09
			S569.402,230.014,574.039,230.014z M579.898,246.885c0-1.719-0.594-3.168-1.777-4.354c-1.184-1.184-2.637-1.775-4.355-1.775
			c-1.691,0-3.145,0.592-4.355,1.775c-1.211,1.186-1.816,2.635-1.816,4.354v38.992c0,1.691,0.605,3.137,1.816,4.334
			s2.664,1.795,4.355,1.795c1.719,0,3.172-0.598,4.355-1.795s1.777-2.643,1.777-4.334V246.885z"/>
		<path fill="#1A171B" d="M629.898,302.123h-29.297v-71.25h10.742v60.586h18.555V302.123z"/>
		<path fill="#1A171B" d="M670.992,285.092c0,4.688-1.652,8.697-4.961,12.031s-7.277,5-11.914,5h-16.875v-71.25h16.875
			c4.688,0,8.672,1.666,11.953,5s4.922,7.33,4.922,11.992V285.092z M647.984,291.498h6.465c1.711,0,3.152-0.619,4.32-1.855
			s1.754-2.689,1.754-4.355v-37.266c0-1.693-0.598-3.145-1.793-4.355c-1.191-1.211-2.621-1.816-4.281-1.816h-6.465V291.498z"/>
	</g>
	<rect x="337.498" y="327.461" fill="#1A171B" width="337.686" height="1.797"/>
	<g>
		<path fill="#1A171B" d="M344.289,377.344h6.273c0.516,0,0.775,0.449,0.775,1.352c0,0.906-0.26,1.359-0.775,1.359h-6.273
			c-2.221,0-3.795-0.539-4.725-1.609s-1.395-2.805-1.395-5.211v-21.141c0-0.594,0.516-0.891,1.549-0.891s1.549,0.297,1.549,0.891
			v21.141c0,1.5,0.227,2.559,0.678,3.18C342.396,377.031,343.178,377.344,344.289,377.344z"/>
		<path fill="#1A171B" d="M359.199,349.266v3.367c0,0.648-0.562,0.969-1.686,0.969s-1.684-0.32-1.684-0.969v-3.367
			c0-0.648,0.561-0.969,1.684-0.969S359.199,348.617,359.199,349.266z M359.082,357.516v18.008c0,0.824,0.193,1.594,0.582,2.305
			c0.387,0.711,0.58,1.078,0.58,1.102c0,0.312-0.246,0.641-0.736,0.988s-0.902,0.52-1.238,0.52c-0.543,0-1.059-0.469-1.549-1.41
			s-0.736-1.98-0.736-3.121v-18.391c0-0.594,0.516-0.891,1.549-0.891S359.082,356.922,359.082,357.516z"/>
		<path fill="#1A171B" d="M370.312,361.969v12.934c0,2.012,1.652,3.02,4.957,3.02s4.957-1.008,4.957-3.02v-1.629
			c0-0.594,0.516-0.891,1.549-0.891s1.549,0.297,1.549,0.891v1.242c0,2.141-0.729,3.695-2.188,4.664s-3.408,1.453-5.848,1.453
			s-4.396-0.484-5.867-1.453s-2.207-2.523-2.207-4.664v-12.16c0-2.145,0.736-3.699,2.207-4.668s3.428-1.453,5.867-1.453
			s4.389,0.484,5.848,1.453s2.188,2.523,2.188,4.668v1.238c0,0.594-0.516,0.891-1.549,0.891s-1.549-0.297-1.549-0.891v-1.625
			c0-2.016-1.652-3.023-4.957-3.023S370.312,359.953,370.312,361.969z"/>
		<path fill="#1A171B" d="M407.838,362.355v17c0,0.594-0.518,0.891-1.549,0.891c-1.033,0-1.549-0.297-1.549-0.891v-17.387
			c0-2.016-1.764-3.023-5.287-3.023s-5.285,1.008-5.285,3.023v17.387c0,0.594-0.518,0.891-1.551,0.891
			c-1.031,0-1.549-0.297-1.549-0.891v-29.395c0-0.594,0.518-0.891,1.549-0.891c1.033,0,1.551,0.297,1.551,0.891v7.863
			c1.418-1.059,3.285-1.59,5.596-1.59s4.232,0.484,5.77,1.453C407.068,358.656,407.838,360.211,407.838,362.355z"/>
		<path fill="#1A171B" d="M421.004,352.285v4.531h4.066c0.52,0,0.777,0.453,0.777,1.355c0,0.906-0.258,1.355-0.777,1.355h-4.066
			v15.996c0,0.824,0.195,1.594,0.582,2.305s0.58,1.078,0.58,1.102c0,0.312-0.246,0.641-0.734,0.988
			c-0.492,0.348-0.904,0.52-1.24,0.52c-0.543,0-1.059-0.469-1.549-1.41s-0.736-1.98-0.736-3.121v-16.379h-3.098
			c-0.518,0-0.775-0.449-0.775-1.355c0-0.902,0.258-1.355,0.775-1.355h3.098v-4.531c0-0.594,0.516-0.891,1.549-0.891
			S421.004,351.691,421.004,352.285z"/>
		<path fill="#1A171B" d="M462.168,362.277v1.16c0,2.195-0.449,3.707-1.352,4.531c-0.906,0.828-2.555,1.359-4.961,1.59l-7.547,0.734
			v4.609c0,2.012,1.676,3.02,5.031,3.02c3.82,0,5.734-0.875,5.734-2.633v-1.469c0-0.594,0.516-0.891,1.547-0.891
			s1.547,0.297,1.547,0.891v1.082c0,3.82-2.836,5.73-8.516,5.73c-2.508,0-4.539-0.492-6.102-1.469
			c-1.562-0.984-2.344-2.531-2.344-4.648v-12.16c0-2.145,0.828-3.699,2.48-4.668s3.809-1.453,6.465-1.453
			c2.66,0,4.664,0.469,6.004,1.398C461.5,358.559,462.168,360.109,462.168,362.277z M448.309,361.969v5.613l7.281-0.734
			c1.469-0.156,2.418-0.465,2.844-0.93s0.641-1.293,0.641-2.48v-1.469c0-2.016-1.797-3.023-5.383-3.023
			C450.102,358.945,448.309,359.953,448.309,361.969z"/>
		<path fill="#1A171B" d="M487.074,362.355v17c0,0.594-0.52,0.891-1.555,0.891c-1.031,0-1.547-0.297-1.547-0.891v-17.387
			c0-2.016-1.762-3.023-5.285-3.023c-3.527,0-5.285,1.008-5.285,3.023v17.387c0,0.594-0.516,0.891-1.551,0.891
			s-1.551-0.297-1.551-0.891v-17c0-2.145,0.766-3.699,2.289-4.668s3.547-1.453,6.078-1.453s4.562,0.484,6.102,1.453
			C486.301,358.656,487.074,360.211,487.074,362.355z"/>
		<path fill="#1A171B" d="M513.137,349.266v3.367c0,0.648-0.562,0.969-1.688,0.969s-1.684-0.32-1.684-0.969v-3.367
			c0-0.648,0.559-0.969,1.684-0.969S513.137,348.617,513.137,349.266z M513.02,357.516v18.008c0,0.824,0.191,1.594,0.578,2.305
			c0.391,0.711,0.582,1.078,0.582,1.102c0,0.312-0.246,0.641-0.738,0.988c-0.488,0.348-0.898,0.52-1.234,0.52
			c-0.547,0-1.062-0.469-1.551-1.41s-0.738-1.98-0.738-3.121v-18.391c0-0.594,0.516-0.891,1.551-0.891
			S513.02,356.922,513.02,357.516z"/>
		<path fill="#1A171B" d="M538.305,362.355v17c0,0.594-0.516,0.891-1.551,0.891c-1.031,0-1.547-0.297-1.547-0.891v-17.387
			c0-2.016-1.762-3.023-5.285-3.023c-3.527,0-5.285,1.008-5.285,3.023v17.387c0,0.594-0.516,0.891-1.551,0.891
			s-1.551-0.297-1.551-0.891v-17c0-2.145,0.766-3.699,2.289-4.668s3.547-1.453,6.078-1.453s4.562,0.484,6.102,1.453
			C537.535,358.656,538.305,360.211,538.305,362.355z"/>
		<path fill="#1A171B" d="M551.473,352.285v4.531h4.066c0.516,0,0.773,0.453,0.773,1.355c0,0.906-0.258,1.355-0.773,1.355h-4.066
			v15.996c0,0.824,0.195,1.594,0.582,2.305s0.582,1.078,0.582,1.102c0,0.312-0.246,0.641-0.738,0.988
			c-0.488,0.348-0.902,0.52-1.238,0.52c-0.543,0-1.059-0.469-1.551-1.41c-0.488-0.941-0.734-1.98-0.734-3.121v-16.379h-3.098
			c-0.516,0-0.773-0.449-0.773-1.355c0-0.902,0.258-1.355,0.773-1.355h3.098v-4.531c0-0.594,0.516-0.891,1.551-0.891
			C550.957,351.395,551.473,351.691,551.473,352.285z"/>
		<path fill="#1A171B" d="M578.312,362.277v1.16c0,2.195-0.453,3.707-1.355,4.531c-0.906,0.828-2.559,1.359-4.957,1.59l-7.551,0.734
			v4.609c0,2.012,1.676,3.02,5.031,3.02c3.82,0,5.734-0.875,5.734-2.633v-1.469c0-0.594,0.516-0.891,1.547-0.891
			s1.551,0.297,1.551,0.891v1.082c0,3.82-2.84,5.73-8.52,5.73c-2.508,0-4.539-0.492-6.102-1.469
			c-1.562-0.984-2.344-2.531-2.344-4.648v-12.16c0-2.145,0.828-3.699,2.48-4.668s3.809-1.453,6.469-1.453
			c2.656,0,4.656,0.469,6,1.398C577.641,358.559,578.312,360.109,578.312,362.277z M564.449,361.969v5.613l7.277-0.734
			c1.473-0.156,2.422-0.465,2.848-0.93s0.641-1.293,0.641-2.48v-1.469c0-2.016-1.797-3.023-5.383-3.023
			C566.242,358.945,564.449,359.953,564.449,361.969z"/>
		<path fill="#1A171B" d="M596.746,363.906v-1.938c0-2.016-1.203-3.023-3.602-3.023c-2.402,0-3.602,1.008-3.602,3.023v17.773
			c0,0.594-0.52,0.891-1.551,0.891s-1.547-0.297-1.547-0.891v-17.387c0-2.145,0.609-3.699,1.836-4.668s2.848-1.453,4.863-1.453
			c4.465,0,6.699,2.016,6.699,6.043v1.629c0,0.594-0.52,0.891-1.551,0.891S596.746,364.5,596.746,363.906z"/>
		<path fill="#1A171B" d="M608.09,349.266v3.367c0,0.648-0.559,0.969-1.684,0.969c-1.121,0-1.684-0.32-1.684-0.969v-3.367
			c0-0.648,0.562-0.969,1.684-0.969C607.531,348.297,608.09,348.617,608.09,349.266z M607.977,357.516v18.008
			c0,0.824,0.191,1.594,0.578,2.305c0.391,0.711,0.582,1.078,0.582,1.102c0,0.312-0.246,0.641-0.734,0.988
			c-0.492,0.348-0.906,0.52-1.242,0.52c-0.539,0-1.059-0.469-1.547-1.41c-0.492-0.941-0.734-1.98-0.734-3.121v-18.391
			c0-0.594,0.516-0.891,1.547-0.891S607.977,356.922,607.977,357.516z"/>
		<path fill="#1A171B" d="M633.07,362.277v1.16c0,2.195-0.453,3.707-1.355,4.531c-0.906,0.828-2.559,1.359-4.957,1.59l-7.551,0.734
			v4.609c0,2.012,1.676,3.02,5.031,3.02c3.82,0,5.734-0.875,5.734-2.633v-1.469c0-0.594,0.516-0.891,1.547-0.891
			s1.551,0.297,1.551,0.891v1.082c0,3.82-2.84,5.73-8.52,5.73c-2.508,0-4.539-0.492-6.102-1.469
			c-1.562-0.984-2.344-2.531-2.344-4.648v-12.16c0-2.145,0.828-3.699,2.48-4.668s3.809-1.453,6.469-1.453
			c2.656,0,4.656,0.469,6,1.398C632.398,358.559,633.07,360.109,633.07,362.277z M619.207,361.969v5.613l7.277-0.734
			c1.473-0.156,2.422-0.465,2.848-0.93s0.641-1.293,0.641-2.48v-1.469c0-2.016-1.797-3.023-5.383-3.023
			C621,358.945,619.207,359.953,619.207,361.969z"/>
		<path fill="#1A171B" d="M657.969,357.516v17c0,2.141-0.766,3.695-2.305,4.664c-1.535,0.969-3.566,1.453-6.098,1.453
			s-4.559-0.484-6.082-1.453s-2.281-2.523-2.281-4.664v-17c0-0.594,0.516-0.891,1.547-0.891s1.551,0.297,1.551,0.891v17.387
			c0,2.012,1.762,3.02,5.285,3.02s5.285-1.008,5.285-3.02v-17.387c0-0.594,0.516-0.891,1.551-0.891
			C657.453,356.625,657.969,356.922,657.969,357.516z"/>
		<path fill="#1A171B" d="M676.789,363.906v-1.938c0-2.016-1.203-3.023-3.602-3.023c-2.402,0-3.602,1.008-3.602,3.023v17.773
			c0,0.594-0.52,0.891-1.551,0.891s-1.547-0.297-1.547-0.891v-17.387c0-2.145,0.609-3.699,1.836-4.668s2.848-1.453,4.863-1.453
			c4.465,0,6.699,2.016,6.699,6.043v1.629c0,0.594-0.52,0.891-1.551,0.891S676.789,364.5,676.789,363.906z"/>
	</g>
</g>
<path fill="#20666A" d="M726.465,168.992h-23.047v-3.723c0-2.863-2.312-5.18-5.172-5.18c-2.852,0-5.164,2.316-5.164,5.18v3.723
	h-6.141v-3.723c0-2.863-2.312-5.18-5.18-5.18c-2.852,0-5.172,2.316-5.172,5.18v3.723H336.268v-3.723c0-2.863-2.312-5.18-5.168-5.18
	c-2.859,0-5.176,2.316-5.176,5.18v3.723h-4.961v-3.723c0-2.863-2.312-5.18-5.172-5.18c-2.855,0-5.172,2.316-5.172,5.18v17.66
	c0,2.852,2.316,5.172,5.172,5.172c2.859,0,5.172-2.32,5.172-5.172v-3.594h4.961v3.594c0,2.852,2.316,5.172,5.176,5.172
	c2.855,0,5.168-2.32,5.168-5.172v-3.594H676.59v3.594c0,2.852,2.32,5.172,5.172,5.172c2.867,0,5.18-2.32,5.18-5.172v-3.594h6.141
	v3.594c0,2.852,2.312,5.172,5.164,5.172c2.859,0,5.172-2.32,5.172-5.172v-3.594h23.047c11.859,0,21.508,9.641,21.508,21.492v195.484
	c0,11.859-9.648,21.492-21.508,21.492h-23.047v-4.047c0-2.852-2.312-5.164-5.172-5.164c-2.852,0-5.164,2.312-5.164,5.164v4.047
	h-6.141v-4.047c0-2.852-2.312-5.164-5.18-5.164c-2.852,0-5.172,2.312-5.172,5.164v4.047H343.197v-0.02h-6.93v-4.027
	c0-2.852-2.312-5.164-5.168-5.164c-2.859,0-5.176,2.312-5.176,5.164v4.027h-4.961v-4.027c0-2.852-2.312-5.164-5.172-5.164
	c-2.855,0-5.172,2.312-5.172,5.164v4.027H157.346c-4.102,0-5.941-1.887-5.941-3.762c0-1.992,2.033-3.281,5.17-3.422H227.4
	c9.852,0,15.152-7.305,15.152-14.191c0-6.961-5.113-13.992-14.902-13.992h-70.41c-4.102,0-5.949-1.887-5.949-3.762
	c0-2.109,2.242-3.469,5.688-3.469H227.4c9.859,0,15.031-7.008,15.031-13.934c0-6.84-5.266-14.098-15.031-14.098h-77.613
	c-1.441-5.305-4.59-13.289-9.258-23.379c-1.496-3.234-3.785-6.879-6.449-11.113c-8.578-13.613-21.531-34.188-21.531-63.629
	c0-38.648,37.895-73.848,79.484-73.848c41.242,0,78.797,35.199,78.797,73.848c0,29.109-12.855,48.867-23.18,64.754
	c-6.633,10.188-11.867,18.234-11.867,26.258c0,2.859,2.32,5.176,5.188,5.176c2.852,0,5.148-2.316,5.148-5.176
	c0-4.953,4.742-12.211,10.203-20.617c10.492-16.133,24.852-38.219,24.852-70.395c0-21.09-9.852-42.48-27.016-58.707
	c-17.141-16.195-39.789-25.48-62.125-25.48c-22.77,0-45.703,9.316-62.891,25.574c-17.125,16.168-26.934,37.543-26.934,58.613
	c0,32.426,13.918,54.52,23.113,69.141c2.477,3.926,4.617,7.324,5.82,9.938c8.344,18.059,9.102,23.504,9.152,24.141
	c-0.012,1.301,0.469,2.566,1.336,3.539c0.984,1.082,2.371,1.715,3.848,1.715H227.4c3.453,0,4.68,1.938,4.68,3.746
	c0,0.84-0.336,3.574-4.68,3.574h-70.422c-10.516,0-16.023,6.953-16.023,13.828c0,6.836,5.711,14.109,16.285,14.109h70.41
	c4.234,0,4.562,2.789,4.562,3.645c0,1.836-1.264,3.785-4.711,3.828v-0.035h-70.406c-0.215,0-0.395,0.047-0.604,0.051h-3.963
	c-1.59,0-2.965,0.766-3.916,1.902c-4.947,2.535-7.549,7.195-7.549,11.867c0,6.844,5.699,14.117,16.281,14.117h153.273v3.289
	c0,2.852,2.316,5.172,5.172,5.172c2.859,0,5.172-2.32,5.172-5.172v-3.281h4.961v3.281c0,2.852,2.316,5.172,5.176,5.172
	c2.855,0,5.168-2.32,5.168-5.172v-3.281H676.59v3.281c0,2.852,2.32,5.172,5.172,5.172c2.867,0,5.18-2.32,5.18-5.172v-3.281h6.141
	v3.281c0,2.852,2.312,5.172,5.164,5.172c2.859,0,5.172-2.32,5.172-5.172v-3.281h23.047c17.555,0,31.844-14.281,31.844-31.836
	V200.828C758.309,183.273,744.02,168.992,726.465,168.992z"/>
<path fill="#FFDF9D" d="M131.143,328.113c-1.203-2.613-3.344-6.012-5.82-9.938c-9.195-14.621-23.113-36.715-23.113-69.141
	c0-21.07,9.809-42.445,26.934-58.613c17.188-16.258,40.121-25.574,62.891-25.574c2.176,0,4.352,0.162,6.527,0.336
	c-9.682-3.963-19.928-6.199-30.082-6.199c-41.609,0-84.727,36.742-84.727,77.078c0,30.738,12.949,52.219,21.523,66.43
	c2.652,4.414,4.961,8.234,6.449,11.605c4.668,10.527,7.816,18.867,9.254,24.398h14.727
	C134.514,335.609,133.031,332.199,131.143,328.113z"/>
<g>
	<path fill="#20666A" d="M177.463,331.799c-2.859,0-5.176-2.324-5.176-5.176v-88.426c0-2.859,2.316-5.164,5.176-5.164
		c2.852,0,5.164,2.305,5.164,5.164v88.426C182.627,329.475,180.314,331.799,177.463,331.799z"/>
	<path fill="#20666A" d="M206.4,331.799c-2.867,0-5.18-2.324-5.18-5.176v-88.426c0-2.859,2.312-5.164,5.18-5.164
		c2.852,0,5.164,2.305,5.164,5.164v88.426C211.564,329.475,209.252,331.799,206.4,331.799z"/>
</g>
<path fill="#FFDF9D" d="M227.869,184.191c-10.959-5.68-23.217-9.004-35.836-9.004c-41.59,0-79.484,35.199-79.484,73.848
	c0,29.441,12.953,50.016,21.531,63.629c2.664,4.234,4.953,7.879,6.449,11.113c2.588,5.598,4.691,10.516,6.314,14.719h68.291
	c0,0,7.562-24.207,14.188-34.828c10.328-16.582,23.18-37.219,23.18-67.605C252.502,216.725,242.652,198.227,227.869,184.191z
	 M182.627,326.623c0,2.852-2.312,5.176-5.164,5.176c-2.859,0-5.176-2.324-5.176-5.176v-88.426c0-2.859,2.316-5.164,5.176-5.164
	c2.852,0,5.164,2.305,5.164,5.164V326.623z M211.564,326.623c0,2.852-2.312,5.176-5.164,5.176c-2.867,0-5.18-2.324-5.18-5.176
	v-88.426c0-2.859,2.312-5.164,5.18-5.164c2.852,0,5.164,2.305,5.164,5.164V326.623z"/>
</svg>
