<?xml version="1.0" standalone="no"?>
<!DOCTYPE svg PUBLIC "-//W3C//DTD SVG 20010904//EN"
 "http://www.w3.org/TR/2001/REC-SVG-20010904/DTD/svg10.dtd">
<svg version="1.0" xmlns="http://www.w3.org/2000/svg"
 width="2811.000000pt" height="1157.000000pt" viewBox="0 0 2811.000000 1157.000000"
 preserveAspectRatio="xMidYMid meet">

<g transform="translate(0.000000,1157.000000) scale(0.100000,-0.100000)"
fill="#000000" stroke="none">
<path d="M9590 11509 c-43 -18 -90 -59 -110 -99 -19 -37 -20 -60 -20 -473 l0
-435 33 -48 c64 -95 174 -121 278 -66 43 22 59 38 81 81 25 48 28 63 28 152
l0 99 105 0 105 0 0 -81 c0 -103 14 -157 53 -204 81 -99 238 -100 324 -2 41
47 53 91 53 200 l0 87 7089 0 7088 0 5 -103 c4 -85 9 -111 29 -147 65 -119
224 -146 326 -57 56 50 73 96 73 210 l0 97 130 0 130 0 0 -87 c0 -109 12 -153
53 -200 77 -88 222 -98 305 -20 49 45 66 95 70 205 l4 102 538 0 537 0 97 -25
c324 -82 567 -324 658 -656 l23 -84 0 -4200 0 -4200 -23 -85 c-87 -329 -334
-576 -664 -662 -79 -20 -108 -22 -624 -25 l-542 -4 -3 118 c-4 108 -6 122 -32
165 -88 150 -316 133 -382 -27 -5 -11 -11 -72 -14 -135 l-6 -115 -125 0 -125
0 -5 120 c-6 135 -16 164 -76 213 -100 83 -256 56 -321 -55 -24 -42 -27 -58
-31 -165 l-4 -118 -7087 2 -7086 3 -6 115 c-6 124 -9 138 -46 188 -59 79 -186
102 -275 49 -31 -18 -57 -44 -75 -75 -26 -43 -28 -57 -32 -165 l-3 -118 -102
3 -101 3 -5 120 c-4 86 -10 129 -22 152 -40 73 -143 122 -227 108 -51 -8 -110
-47 -141 -93 -22 -32 -26 -49 -30 -161 l-5 -126 -3230 0 c-3091 0 -3232 1
-3282 18 -68 24 -123 83 -123 133 0 58 25 93 88 122 l57 27 1585 5 c1505 5
1588 6 1640 24 191 64 331 197 394 375 25 71 33 242 16 320 -44 203 -200 364
-415 428 -56 17 -164 18 -1645 23 -1762 6 -1617 -1 -1688 73 -65 67 -47 150
44 197 l48 25 1581 5 c1456 5 1585 7 1644 23 318 86 501 390 421 702 -52 205
-201 355 -420 422 -51 16 -189 18 -1736 20 l-1681 3 -47 141 c-49 150 -202
522 -309 757 -79 172 -113 231 -322 567 -208 334 -296 487 -405 706 -242 482
-373 902 -442 1409 -19 141 -22 210 -22 475 0 292 1 318 26 455 75 407 217
757 451 1110 378 569 941 1029 1590 1299 532 221 1128 297 1687 215 1265 -184
2409 -1166 2738 -2349 72 -258 96 -442 95 -730 -1 -480 -82 -910 -260 -1375
-144 -375 -311 -685 -671 -1240 -358 -552 -458 -745 -507 -975 -21 -102 -20
-217 4 -264 64 -125 224 -159 327 -69 49 43 70 91 78 176 16 179 98 342 450
885 505 779 732 1257 881 1847 91 362 120 601 120 1015 0 342 -6 411 -61 664
-185 859 -758 1677 -1549 2210 -180 122 -296 188 -508 291 -290 141 -574 238
-875 299 -269 55 -369 64 -707 65 -331 1 -426 -7 -695 -60 -1527 -300 -2774
-1533 -3009 -2973 -92 -562 -16 -1274 204 -1920 152 -446 329 -796 710 -1406
193 -308 238 -392 340 -625 145 -330 261 -648 285 -780 20 -112 30 -139 62
-176 67 -75 -112 -68 1873 -74 1773 -5 1780 -5 1815 -26 57 -33 83 -79 78
-142 -5 -57 -28 -90 -83 -120 -27 -16 -165 -17 -1615 -22 -1472 -5 -1589 -6
-1645 -23 -217 -63 -380 -218 -430 -408 -19 -71 -19 -210 0 -284 50 -192 214
-349 435 -417 l75 -23 1580 -5 c1473 -5 1582 -6 1612 -22 43 -24 70 -61 78
-109 9 -53 -26 -126 -75 -154 -35 -20 -53 -20 -1665 -25 l-1630 -5 -42 -22
c-23 -13 -45 -27 -48 -33 -4 -6 -35 -29 -70 -51 -251 -159 -334 -462 -198
-722 79 -150 215 -254 406 -309 32 -10 792 -14 3317 -18 l3275 -5 5 -105 c5
-110 17 -146 62 -186 42 -39 84 -54 150 -54 78 0 129 27 173 88 28 40 30 52
35 150 l5 107 103 3 102 3 0 -83 c0 -94 10 -137 41 -183 39 -57 84 -79 165
-83 65 -4 79 -1 119 22 28 17 55 44 72 74 24 40 29 61 33 147 l5 100 7088 3
7087 2 0 -78 c0 -109 20 -171 71 -216 51 -47 76 -56 153 -56 51 0 70 5 107 29
73 46 92 86 99 211 l5 105 125 0 125 0 5 -100 c4 -86 9 -107 33 -147 17 -30
44 -57 72 -74 40 -23 54 -26 119 -22 81 4 126 26 165 83 31 46 41 89 41 182
l0 83 543 0 c604 0 646 3 834 65 324 108 601 343 755 641 58 112 82 173 116
299 l27 100 3 4250 c2 4709 8 4320 -63 4532 -131 390 -441 704 -825 833 -188
63 -184 63 -812 67 l-578 4 0 85 c0 108 -14 162 -53 209 -81 99 -238 100 -324
2 -41 -47 -53 -91 -53 -204 l0 -93 -130 0 -130 0 0 104 c0 94 -3 109 -28 157
-22 43 -38 59 -81 81 -114 60 -237 23 -294 -87 -16 -31 -21 -65 -25 -147 l-5
-108 -7088 0 -7089 0 0 93 c0 113 -12 157 -53 204 -86 98 -243 97 -324 -2 -39
-47 -53 -101 -53 -209 l0 -86 -105 0 -105 0 0 108 c0 100 -2 110 -29 157 -38
67 -105 105 -182 104 -30 0 -65 -5 -79 -10z"/>
<path d="M20252 8590 c-203 -54 -375 -198 -463 -385 -70 -150 -69 -131 -69
-1115 0 -999 -2 -968 77 -1130 39 -81 60 -109 137 -185 104 -103 189 -154 312
-185 97 -25 260 -27 353 -4 226 55 433 245 508 468 l28 81 0 950 0 950 -29 89
c-68 206 -247 386 -450 453 -112 36 -296 42 -404 13z m279 -457 c60 -31 112
-92 129 -151 6 -24 10 -333 10 -892 -1 -922 1 -893 -54 -965 -58 -76 -174
-112 -271 -85 -55 15 -128 77 -158 134 l-22 41 0 880 0 880 30 53 c66 121 214
166 336 105z"/>
<path d="M10755 8568 c-3 -7 -4 -677 -3 -1488 l3 -1475 455 0 c449 0 456 0
530 23 124 39 206 88 296 177 92 92 130 153 173 280 41 122 55 241 48 405 -12
311 -128 546 -319 647 l-37 20 60 42 c108 76 188 205 224 361 22 99 22 306 0
415 -35 167 -118 324 -217 409 -108 93 -278 166 -438 185 -126 16 -769 15
-775 -1z m787 -470 c56 -25 123 -92 149 -151 22 -47 24 -66 24 -202 0 -141 -2
-153 -26 -205 -62 -133 -129 -170 -321 -178 l-128 -5 0 383 0 382 133 -4 c91
-3 144 -9 169 -20z m-8 -1182 c67 -20 120 -60 157 -117 40 -63 57 -122 70
-240 23 -225 -49 -400 -196 -477 -45 -23 -63 -26 -187 -30 l-138 -4 0 441 0
441 123 0 c79 0 141 -5 171 -14z"/>
<path d="M12380 8568 c0 -7 132 -389 292 -848 l293 -835 5 -640 5 -640 223 -3
222 -2 0 619 0 620 300 860 c165 472 300 864 300 870 0 8 -72 11 -246 9 l-246
-3 -162 -522 c-88 -288 -163 -523 -166 -523 -3 0 -75 222 -159 493 -84 270
-159 507 -167 525 l-13 32 -240 0 c-186 0 -241 -3 -241 -12z"/>
<path d="M14406 8553 c-12 -59 -496 -2926 -496 -2939 0 -20 458 -21 465 -1 3
6 28 161 57 342 l53 330 233 3 c137 1 232 -1 232 -7 0 -16 100 -656 105 -668
3 -10 59 -13 233 -13 126 0 231 2 233 5 4 3 -440 2686 -486 2943 l-6 32 -309
0 -308 0 -6 -27z m394 -1259 c44 -307 80 -560 80 -561 0 -2 -72 -3 -160 -3
-146 0 -160 2 -160 18 -1 25 154 1111 158 1108 1 -2 38 -255 82 -562z"/>
<path d="M15900 7090 l0 -1490 225 0 225 0 0 560 0 560 150 0 c83 0 150 -3
150 -6 0 -6 244 -1013 261 -1076 l10 -38 239 0 c178 0 240 3 240 12 0 6 -72
294 -160 638 -88 345 -160 632 -160 639 0 6 27 44 61 83 33 40 78 109 100 153
63 127 69 175 69 540 0 276 -3 333 -19 412 -48 230 -187 393 -390 457 -120 38
-229 46 -628 46 l-373 0 0 -1490z m856 995 c52 -26 88 -70 104 -126 6 -19 10
-161 10 -315 l0 -282 -28 -53 c-31 -60 -93 -113 -150 -129 -20 -5 -106 -10
-189 -10 l-153 0 0 470 0 470 178 0 c170 0 180 -1 228 -25z"/>
<path d="M17785 8568 c-3 -7 -4 -677 -3 -1488 l3 -1475 225 0 225 0 5 933 5
933 223 -688 c122 -378 258 -799 303 -935 l80 -248 239 0 240 0 0 1490 0 1490
-225 0 -225 0 -2 -984 -3 -985 -269 907 c-148 499 -280 942 -293 985 l-24 77
-250 0 c-190 0 -251 -3 -254 -12z"/>
<path d="M21535 8568 c-3 -7 -4 -677 -3 -1488 l3 -1475 610 0 610 0 3 223 2
222 -385 0 -385 0 -2 1263 -3 1262 -223 3 c-173 2 -224 0 -227 -10z"/>
<path d="M23060 7090 l0 -1490 359 0 c200 0 394 5 438 11 169 23 291 87 416
218 85 89 135 173 169 281 l23 75 0 910 0 910 -27 80 c-39 114 -92 198 -178
285 -118 117 -237 177 -400 200 -36 5 -230 10 -432 10 l-368 0 0 -1490z m814
1006 c46 -19 104 -72 129 -120 l22 -41 3 -839 2 -838 -23 -52 c-13 -28 -38
-66 -56 -84 -63 -62 -79 -67 -268 -70 l-173 -4 0 1031 0 1031 165 0 c118 0
175 -4 199 -14z"/>
<path d="M3830 8469 c-45 -19 -90 -60 -113 -102 l-22 -42 -3 -1865 c-2 -1026
0 -1884 3 -1906 12 -83 77 -151 167 -175 105 -28 223 50 248 162 8 40 10 534
8 1919 l-3 1865 -25 45 c-38 67 -93 101 -171 106 -35 2 -75 -1 -89 -7z"/>
<path d="M5025 8461 c-50 -22 -101 -79 -115 -128 -8 -27 -10 -587 -8 -1930 l3
-1891 30 -44 c88 -124 262 -124 350 0 l30 44 3 1891 c2 1343 0 1903 -8 1930
-24 81 -113 147 -200 147 -25 0 -63 -9 -85 -19z"/>
<path d="M10572 4513 l3 -38 7035 0 7035 0 3 38 3 37 -7041 0 -7041 0 3 -37z"/>
<path d="M11346 3664 c-12 -11 -16 -35 -16 -87 0 -93 15 -117 71 -117 73 0 79
9 79 108 0 55 -4 92 -12 100 -18 18 -103 15 -122 -4z"/>
<path d="M17762 3668 c-8 -8 -12 -45 -12 -100 0 -97 7 -108 70 -108 63 0 70
11 70 108 0 55 -4 92 -12 100 -16 16 -100 16 -116 0z"/>
<path d="M21720 3670 c-10 -6 -16 -32 -18 -85 -5 -97 10 -125 69 -125 73 0 79
9 79 108 0 55 -4 92 -12 100 -14 14 -97 16 -118 2z"/>
<path d="M12816 3634 c-14 -14 -16 -85 -16 -634 0 -690 -4 -650 70 -650 72 0
70 -14 70 416 0 432 -2 419 73 449 66 27 230 25 289 -3 25 -13 50 -34 56 -48
9 -17 12 -139 12 -404 0 -423 -2 -410 70 -410 74 0 72 -15 68 424 -3 382 -4
392 -25 433 -77 143 -318 188 -525 98 -17 -7 -18 4 -18 153 0 182 -4 192 -70
192 -22 0 -45 -7 -54 -16z"/>
<path d="M10612 3548 c-9 -9 -12 -133 -12 -498 0 -417 2 -494 16 -540 20 -66
73 -123 129 -139 22 -6 119 -11 216 -11 192 0 189 -1 189 58 0 49 -5 50 -180
54 -177 3 -196 8 -222 57 -10 20 -14 134 -16 516 -2 330 -6 493 -14 502 -13
16 -90 17 -106 1z"/>
<path d="M13965 3553 c-41 -10 -45 -22 -45 -124 l0 -99 -68 0 c-75 0 -92 -9
-92 -53 0 -57 14 -67 90 -67 l70 0 0 -360 c0 -392 4 -425 58 -482 30 -33 43
-34 83 -11 40 24 44 45 17 95 -23 42 -23 50 -26 401 l-3 357 88 0 c48 0 93 4
100 8 18 11 25 55 14 85 -10 27 -11 27 -106 27 l-95 0 0 104 c0 58 -3 107 -7
109 -16 9 -59 14 -78 10z"/>
<path d="M19390 3551 c-24 -7 -25 -9 -28 -114 l-3 -106 -77 -3 -77 -3 -3 -43
c-5 -62 8 -72 89 -72 l69 0 0 -372 c0 -373 0 -373 24 -425 14 -28 34 -56 45
-62 27 -15 64 -5 90 23 l22 23 -26 54 -25 54 0 353 0 352 88 0 c99 0 112 7
112 60 0 53 -13 60 -112 60 l-88 0 0 99 c0 67 -4 102 -12 108 -19 15 -60 21
-88 14z"/>
<path d="M11985 3330 c-81 -26 -139 -77 -160 -139 -14 -42 -16 -95 -13 -368 3
-316 3 -318 27 -360 48 -84 151 -127 306 -127 163 -1 275 48 316 137 22 49 27
175 7 195 -15 15 -72 16 -99 2 -16 -9 -19 -22 -19 -73 0 -112 -42 -141 -200
-142 -83 0 -113 4 -143 19 -67 33 -68 39 -65 381 l3 303 24 26 c34 36 84 50
182 50 67 -1 96 -5 131 -23 53 -25 68 -53 68 -125 0 -66 13 -78 77 -74 l48 3
3 65 c4 87 -12 140 -57 183 -63 62 -119 80 -256 84 -98 2 -131 -1 -180 -17z"/>
<path d="M15273 3335 c-105 -29 -167 -75 -197 -147 -13 -31 -16 -89 -16 -340
0 -189 4 -318 11 -343 17 -60 82 -118 165 -146 57 -20 89 -24 184 -23 240 1
344 73 345 239 l0 70 -37 9 c-26 6 -46 6 -63 -2 -21 -10 -25 -18 -25 -57 0
-107 -54 -140 -230 -140 -93 0 -122 4 -153 19 -56 28 -67 57 -67 180 0 124
-26 109 210 131 326 30 365 61 365 285 0 100 -3 121 -22 157 -46 85 -143 123
-311 122 -59 0 -131 -7 -159 -14z m295 -126 c58 -25 77 -69 69 -161 -6 -73
-19 -101 -55 -117 -13 -7 -85 -18 -160 -26 -76 -8 -158 -17 -184 -20 l-48 -6
0 128 c0 143 7 167 58 196 67 39 236 43 320 6z"/>
<path d="M16302 3335 c-70 -20 -101 -37 -139 -77 -57 -60 -57 -60 -61 -484 -4
-439 -6 -424 68 -424 72 0 70 -13 70 410 0 265 3 387 12 404 6 14 31 35 56 48
59 28 223 30 289 3 75 -30 73 -17 73 -449 0 -430 -2 -416 70 -416 72 0 70 -13
70 404 0 421 -3 442 -67 508 -58 59 -125 80 -268 84 -85 3 -136 -1 -173 -11z"/>
<path d="M18440 3336 c-103 -29 -163 -78 -189 -155 -16 -49 -16 -802 1 -819 7
-7 30 -12 53 -12 23 0 46 5 53 12 9 9 12 109 12 390 0 433 -1 425 78 461 72
32 220 30 288 -4 27 -13 55 -35 61 -49 9 -18 13 -124 13 -405 0 -283 3 -384
12 -393 16 -16 90 -16 106 0 17 17 17 770 1 819 -27 79 -87 127 -194 155 -62
17 -235 17 -295 0z"/>
<path d="M20111 3334 c-70 -19 -144 -59 -168 -92 -40 -55 -43 -85 -43 -404 0
-336 2 -352 58 -412 83 -89 310 -120 482 -67 106 33 155 89 167 191 9 74 -1
98 -43 106 -20 4 -46 2 -60 -5 -20 -9 -24 -18 -24 -51 0 -111 -55 -145 -235
-145 -88 0 -118 4 -148 19 -56 28 -67 57 -67 180 0 124 -26 108 210 131 247
24 303 44 342 124 20 40 23 62 23 161 0 99 -3 121 -22 157 -46 85 -143 123
-311 122 -60 0 -131 -7 -161 -15z m299 -127 c56 -28 72 -65 65 -155 -7 -76
-20 -106 -52 -121 -14 -6 -86 -18 -161 -26 -76 -8 -158 -17 -184 -20 l-48 -6
0 128 c0 143 7 167 58 196 70 41 240 43 322 4z"/>
<path d="M21100 3334 c-64 -23 -105 -56 -131 -111 -24 -48 -24 -51 -27 -453
l-3 -405 21 -17 c27 -22 68 -23 98 -2 l22 15 0 395 c0 436 0 439 62 465 18 7
55 13 83 13 107 0 145 -39 145 -148 0 -56 3 -67 22 -80 29 -21 68 -20 97 1 23
15 23 20 18 94 -10 132 -49 193 -144 229 -66 25 -197 26 -263 4z"/>
<path d="M22393 3335 c-110 -30 -182 -87 -202 -162 -7 -23 -11 -158 -11 -334
0 -340 4 -365 72 -424 66 -56 152 -80 288 -79 240 1 344 73 345 239 l0 70 -37
9 c-26 6 -46 6 -63 -2 -21 -10 -25 -18 -25 -56 0 -66 -14 -92 -62 -118 -37
-19 -59 -22 -158 -22 -198 -1 -230 27 -230 203 0 119 -25 104 211 126 240 22
302 44 342 119 19 36 22 57 22 161 0 102 -3 126 -21 160 -26 50 -84 91 -154
110 -70 19 -248 18 -317 0z m294 -125 c52 -23 73 -61 73 -132 0 -80 -16 -125
-50 -143 -16 -8 -91 -22 -167 -30 -76 -8 -159 -17 -185 -20 l-48 -6 0 126 c0
142 10 174 62 201 71 37 235 39 315 4z"/>
<path d="M24426 3330 c-27 -11 -64 -34 -82 -51 -62 -60 -64 -78 -64 -526 l0
-403 28 -11 c17 -7 40 -8 62 -2 l35 8 5 412 5 413 26 25 c45 46 158 56 216 19
34 -22 46 -53 52 -134 l6 -75 35 -8 c22 -6 45 -5 63 2 26 10 27 13 27 84 0
185 -88 268 -284 267 -55 -1 -97 -7 -130 -20z"/>
<path d="M11370 3333 c-8 -3 -18 -11 -22 -17 -4 -6 -8 -194 -8 -417 0 -443 3
-475 56 -530 32 -34 45 -35 85 -12 40 24 44 45 17 95 -23 43 -23 47 -26 456
l-3 413 -25 9 c-28 11 -51 12 -74 3z"/>
<path d="M17769 3319 c-20 -20 -20 -28 -16 -432 3 -443 5 -463 56 -519 23 -26
32 -30 55 -24 15 4 39 18 52 31 l25 25 -26 49 -25 50 0 405 0 405 -22 15 c-31
22 -74 20 -99 -5z"/>
<path d="M21733 3325 l-23 -16 0 -407 c0 -242 4 -422 10 -443 12 -42 47 -97
72 -113 14 -8 26 -6 54 9 48 25 51 38 25 91 -20 43 -21 56 -21 447 0 307 -3
407 -13 420 -18 25 -77 32 -104 12z"/>
<path d="M23253 3330 c-12 -5 -25 -20 -28 -33 -4 -14 -5 -193 -3 -398 3 -369
3 -375 27 -422 48 -98 149 -141 331 -140 172 0 273 43 323 136 22 41 22 50 25
437 3 395 3 395 -19 412 -28 24 -74 23 -99 -2 -19 -19 -20 -33 -20 -404 0
-372 -1 -384 -21 -409 -56 -73 -304 -77 -379 -7 l-30 28 0 390 0 391 -22 15
c-25 18 -52 19 -85 6z"/>
</g>
</svg>
